<svg id="Layer_1" data-name="Layer 1" xmlns="http://www.w3.org/2000/svg" viewBox="0 0 720 720"><defs><style>.cls-1{fill:#272626;}.cls-2{fill:#fff;}</style></defs><title>fb</title><circle class="cls-1" cx="360" cy="360" r="360"/><path class="cls-2" d="M535.17176,163.14353H184.82824a21.68523,21.68523,0,0,0-21.68471,21.68471V535.17176a21.68516,21.68516,0,0,0,21.68471,21.68471h188.64V404.38588H321.88235V345.09176h51.33177V301.21412c0-50.82353,31.00235-78.52236,76.23529-78.52236a407.79038,407.79038,0,0,1,45.82588,2.37177v53.11059H463.84941c-24.73412,0-29.47765,11.77412-29.47765,28.96941v37.94823h58.87059l-7.70823,59.29412H434.71059V556.85647H535.08706a21.68471,21.68471,0,0,0,21.6847-21.68471V184.82824A21.68479,21.68479,0,0,0,535.17176,163.14353Z"/></svg>