<svg id="Layer_1" data-name="Layer 1" xmlns="http://www.w3.org/2000/svg" viewBox="0 0 719.96483 719.96483"><defs><style>.cls-1{fill:#272626;}.cls-2,.cls-3{fill:#fff;}.cls-2{fill-rule:evenodd;}</style></defs><title>gh</title><circle class="cls-1" cx="359.98241" cy="359.98241" r="359.98241"/><path class="cls-2" d="M360.01759,163.42484c-111.33546.10339-201.5064,90.44288-201.40221,201.77739a201.58945,201.58945,0,0,0,137.8759,191.0693c10.0795,1.86344,13.72168-4.40449,13.72168-9.656V509.09266c-56.07256,12.11235-67.7614-23.80119-67.7614-23.80119-9.14778-23.293-22.36126-29.56091-22.36126-29.56091-18.29557-12.45116,1.35523-12.19705,1.35523-12.19705a42.35279,42.35279,0,0,1,30.91614,20.75192c17.95677,30.83144,47.17887,21.93775,58.69831,16.94035a42.349,42.349,0,0,1,12.79-26.93515c-44.80722-5.08211-91.90139-22.446-91.90139-99.694A77.66758,77.66758,0,0,1,252.78518,300.557a71.99506,71.99506,0,0,1,1.94814-53.3621s16.94035-5.42091,55.39494,20.66723a191.42977,191.42977,0,0,1,100.96448,0c38.53929-26.08814,55.39494-20.66723,55.39494-20.66723a71.99706,71.99706,0,0,1,1.94814,53.3621,77.58315,77.58315,0,0,1,20.75193,54.03971c0,77.5021-47.09417,94.52715-91.9861,99.52455a48.28269,48.28269,0,0,1,13.637,37.35347v55.31024c0,5.33621,3.64218,11.60414,13.89109,9.656,105.6289-35.18844,162.73143-149.34267,127.54293-254.97083a201.59032,201.59032,0,0,0-191.408-137.87586Z" transform="translate(-0.03517 -0.03517)"/><path class="cls-3" d="M234.7437,452.8507c0,1.01642-1.94814,1.27052-3.38807.59291s-2.28694-2.03284-1.86343-3.04926,2.03284-1.27053,3.47277-.59292C234.4049,450.48,235.25192,451.83428,234.7437,452.8507Z" transform="translate(-0.03517 -0.03517)"/><path class="cls-3" d="M242.95977,461.91378c-.93172.93172-2.87986.50821-4.15038-.93172a3.13332,3.13332,0,0,1-.59291-4.14948c1.01642-.93172,2.79515-.50821,4.15038.93082C243.72209,459.20333,243.97619,461.06767,242.95977,461.91378Z" transform="translate(-0.03517 -0.03517)"/><path class="cls-3" d="M250.92174,473.60262c-1.27053.84623-3.30337,0-4.48919-1.77873-1.18583-1.77953-1.27053-3.981,0-4.8288,1.27052-.847,3.21866,0,4.48919,1.69483C252.19226,470.384,252.19226,472.67011,250.92174,473.60262Z" transform="translate(-0.03517 -0.03517)"/><path class="cls-3" d="M261.76356,484.78326c-1.10112,1.18582-3.47277.847-5.16681-.76232s-2.28694-3.981-1.10112-5.16681,3.47277-.847,5.16681.76232S262.94939,483.59743,261.76356,484.78326Z" transform="translate(-0.03517 -0.03517)"/><path class="cls-3" d="M276.84047,491.30529c-.50821,1.52463-2.79516,2.28695-5.0821,1.60933s-3.72688-2.54105-3.30337-4.15038,2.79516-2.28695,5.0821-1.60934S277.264,489.696,276.84047,491.30529Z" transform="translate(-0.03517 -0.03517)"/><path class="cls-3" d="M293.27261,492.49111c0,1.694-1.86344,3.04927-4.23509,3.04927s-4.40449-1.27053-4.40449-2.87986,1.86344-3.04927,4.31979-3.134,4.31979,1.35523,4.31979,2.96456Z" transform="translate(-0.03517 -0.03517)"/><path class="cls-3" d="M308.68833,489.86536c0,1.60933-1.43993,3.30337-3.81158,3.72688s-4.48919-.50821-4.7433-2.11755,1.35523-3.38807,3.72688-3.81158S308.34952,488.256,308.68833,489.86536Z" transform="translate(-0.03517 -0.03517)"/></svg>