<svg id="Layer_1" data-name="Layer 1" xmlns="http://www.w3.org/2000/svg" viewBox="0 0 720 720"><defs><style>.cls-1{fill:#272626;}.cls-2{fill:#fff;}</style></defs><title>tw</title><circle class="cls-1" cx="360" cy="360" r="360"/><path class="cls-2" d="M561.6,234.97412a167.998,167.998,0,0,1-47.52,13.0447,82.67537,82.67537,0,0,0,36.33882-45.82588,164.84468,164.84468,0,0,1-52.51764,20.0753,82.75767,82.75767,0,0,0-143.06824,56.58352,86.62648,86.62648,0,0,0,2.11765,18.88942,235.31466,235.31466,0,0,1-170.59765-85.97647,82.75757,82.75757,0,0,0,25.41177,110.11764A82.84388,82.84388,0,0,1,174.24,311.54824v1.10117a82.75752,82.75752,0,0,0,66.40941,81.06353,84.27355,84.27355,0,0,1-37.35529,1.44,82.67442,82.67442,0,0,0,77.25176,57.43144,166.02064,166.02064,0,0,1-102.66353,35.2368,167.97237,167.97237,0,0,1-19.73647-1.18589,233.363,233.363,0,0,0,127.05883,37.18589c152.47058,0,235.39764-126.04236,235.39764-235.31294V277.75059A167.8822,167.8822,0,0,0,561.6,234.97412Z"/></svg>