<svg id="Layer_1" data-name="Layer 1" xmlns="http://www.w3.org/2000/svg" viewBox="0 0 352.5905 719.86526"><title>logo</title><polygon points="90.773 166.797 176.444 117.335 262.114 166.797 262.114 265.721 289.318 281.427 289.318 151.091 176.443 85.924 63.569 151.091 90.773 166.797 90.773 166.797"/><polygon points="90.773 265.721 90.773 166.797 63.569 151.091 63.569 281.427 106.285 306.089 160.693 306.089 90.773 265.721"/><polygon points="346.47 412.416 292.063 412.416 324.876 431.36 324.876 602.756 324.876 602.756 352.079 618.462 352.079 415.654 346.47 412.416"/><polygon points="176.443 688.453 28.011 602.756 28.011 431.36 28.011 431.36 0.807 415.654 0.807 618.462 176.443 719.865 352.079 618.462 324.876 602.756 176.443 688.453"/><polygon points="261.306 553.068 175.636 602.53 89.965 553.068 89.965 454.144 62.761 438.438 62.761 568.774 175.636 633.942 288.51 568.774 261.306 553.068 261.306 553.068"/><polygon points="261.306 454.144 261.306 553.068 288.51 568.774 288.51 438.438 243.438 412.416 189.031 412.416 261.306 454.144"/><polygon points="27.203 288.505 27.203 117.11 27.203 117.11 0 101.404 0 304.211 3.253 306.089 57.66 306.089 27.203 288.505"/><polygon points="175.636 31.412 324.068 117.11 324.068 288.505 324.068 288.505 351.272 304.211 351.272 101.404 175.636 0 0 101.404 27.203 117.11 175.636 31.412"/><path d="M216.85238,329.19168l.49346,20.26387h-1.83836A20.75572,20.75572,0,0,0,209.119,337.194a16.06149,16.06149,0,0,0-11.00629-4.63975,10.30677,10.30677,0,0,0-7.24056,2.4434,7.43844,7.43844,0,0,0-2.66722,5.626,6.83227,6.83227,0,0,0,.9411,3.58641,15.22419,15.22419,0,0,0,4.16953,4.16953,93.7558,93.7558,0,0,0,9.72846,5.24546q10.66958,5.24512,14.39146,9.90778a16.7663,16.7663,0,0,1,3.67607,10.67023,17.25745,17.25745,0,0,1-5.94015,13.11364q-5.94148,5.49217-15.08616,5.49185a24.3807,24.3807,0,0,1-5.42478-.58246,41.04336,41.04336,0,0,1-6.411-2.197,9.70425,9.70425,0,0,0-3.54192-.8966,4.38909,4.38909,0,0,0-2.46532.8966,6.26644,6.26644,0,0,0-2.10735,2.735h-1.659V369.80974h1.659q1.97253,9.68331,7.5992,14.772,5.62569,5.08871,12.12671,5.08871a11.37884,11.37884,0,0,0,8.003-2.735,8.24468,8.24468,0,0,0,1.8377-10.5354,13.26031,13.26031,0,0,0-3.47417-3.83347,52.59082,52.59082,0,0,0-8.2494-4.72941,71.2938,71.2938,0,0,1-11.92547-6.949,21.32634,21.32634,0,0,1-5.58152-6.411,15.90677,15.90677,0,0,1-1.94994-7.8011,16.50389,16.50389,0,0,1,5.33512-12.37377,18.66262,18.66262,0,0,1,13.44969-5.11063,22.90572,22.90572,0,0,1,5.73825.71728,28.70533,28.70533,0,0,1,5.13322,1.9951,12.09189,12.09189,0,0,0,4.23661,1.45715,2.39813,2.39813,0,0,0,1.83836-.71728,8.26884,8.26884,0,0,0,1.25525-3.45225Z" transform="translate(-175.08392 -0.13474)"/><path d="M260.24991,329.72964q14.526-.538,23.60454,8.47322,9.0786,9.01085,9.07826,22.55054a32.41991,32.41991,0,0,1-6.76967,20.35419q-8.967,11.65683-25.33,11.65649-16.40882,0-25.37516-11.11853a32.19269,32.19269,0,0,1-7.08382-20.847q0-13.53969,9.21308-22.57312Q246.80022,329.19167,260.24991,329.72964Zm.538,2.86912q-8.33839,0-12.68725,8.51839-3.54258,6.99349-3.54191,20.08455,0,15.558,5.46927,22.99884a12.46775,12.46775,0,0,0,10.67023,5.201,12.794,12.794,0,0,0,7.71144-2.2415q3.94405-2.86913,6.14206-9.16859,2.19567-6.29813,2.19634-16.43106,0-12.0593-2.2415-18.04495-2.2425-5.98532-5.71568-8.45064A13.4817,13.4817,0,0,0,260.78787,332.59876Z" transform="translate(-175.08392 -0.13474)"/><path d="M321.31183,362.14346v18.82931q0,4.66332.51538,5.82858a4.61914,4.61914,0,0,0,2.01769,2.0396,8.05107,8.05107,0,0,0,4.05729.874h2.01768v1.659h-31.7862v-1.659h2.017a8.40672,8.40672,0,0,0,4.25919-.9411,4.0829,4.0829,0,0,0,1.79321-2.15184q.49313-1.07593.49346-5.64926V340.98233q0-4.66233-.49346-5.82792a4.48606,4.48606,0,0,0-1.99511-2.04027,8.05982,8.05982,0,0,0-4.05729-.874h-2.017v-1.659h31.7862v1.659h-2.01768a8.4048,8.4048,0,0,0-4.2592.94177,4.284,4.284,0,0,0-1.83836,2.15184q-.49314,1.07592-.4928,5.6486v17.21608h21.47461V340.98233q0-4.66233-.49346-5.82792a4.47531,4.47531,0,0,0-2.017-2.04027,8.19162,8.19162,0,0,0-4.07987-.874h-1.97253v-1.659h31.741v1.659h-1.97252a8.25576,8.25576,0,0,0-4.25919.94177,4.283,4.283,0,0,0-1.83771,2.15184q-.49411,1.07592-.49346,5.6486v39.99044q0,4.66332.49346,5.82858a4.46457,4.46457,0,0,0,2.017,2.0396,8.18266,8.18266,0,0,0,4.07987.874h1.97252v1.659h-31.741v-1.659h1.97253a8.2578,8.2578,0,0,0,4.25919-.9411,4.28607,4.28607,0,0,0,1.8377-2.15184q.49314-1.07593.49346-5.64926V362.14346Z" transform="translate(-175.08392 -0.13474)"/><path d="M405.82089,374.06893H384.34627l-2.55564,5.91758a13.172,13.172,0,0,0-1.25525,4.88681,4.06,4.06,0,0,0,2.06219,3.76573q1.21041.71828,5.96273,1.07592v1.659H368.34093v-1.659a9.03359,9.03359,0,0,0,5.37961-2.71239q2.107-2.21859,5.201-9.16792l21.74359-48.50882h.85211l21.92291,49.85372q3.13711,7.08416,5.15513,8.92153a7.03279,7.03279,0,0,0,4.30369,1.61388v1.659H403.48972v-1.659h1.21008q3.54159,0,4.97648-.98626a2.39527,2.39527,0,0,0,.98626-2.06219,5.49172,5.49172,0,0,0-.269-1.65838q-.09066-.40347-1.3449-3.36259Zm-1.52423-3.31809-9.05634-20.93665L385.915,370.75084Z" transform="translate(-175.08392 -0.13474)"/><path d="M467.55426,389.715v1.659h-31.7862v-1.659h2.01769a8.40575,8.40575,0,0,0,4.25852-.9411,4.0829,4.0829,0,0,0,1.79321-2.15184q.49213-1.07593.4928-5.64926V340.98233q0-4.66233-.4928-5.82792a4.48941,4.48941,0,0,0-1.99511-2.04027,8.05882,8.05882,0,0,0-4.05662-.874h-2.01769v-1.659h31.7862v1.659h-2.01768a8.40212,8.40212,0,0,0-4.25853.94177,4.2777,4.2777,0,0,0-1.83837,2.15184q-.49413,1.07592-.49412,5.6486v39.99044q0,4.66332.5167,5.82858a4.612,4.612,0,0,0,2.01636,2.0396,8.05382,8.05382,0,0,0,4.058.874Z" transform="translate(-175.08392 -0.13474)"/><path d="M510.50349,359.13951q8.65122,2.01737,12.14863,4.88682a13.00225,13.00225,0,0,1,5.0223,10.58056,14.00555,14.00555,0,0,1-5.5151,11.34235q-6.77034,5.42544-19.68141,5.42478h-30.8896v-1.659q4.214,0,5.717-.78436a4.58224,4.58224,0,0,0,2.10668-2.0396q.6057-1.25525.60571-6.18722V341.25131q0-4.93131-.60571-6.20914a4.436,4.436,0,0,0-2.12926-2.0396q-1.52423-.76212-5.69442-.76245v-1.659h29.14156q10.44441,0,14.79459,1.861a15.40409,15.40409,0,0,1,6.85934,5.55893,13.76793,13.76793,0,0,1,2.51049,7.86818,11.18163,11.18163,0,0,1-3.18261,7.823Q518.52775,357.12215,510.50349,359.13951ZM494.184,361.42618v19.50209l-.04516,2.24151a4.34507,4.34507,0,0,0,4.88681,4.88681,13.98975,13.98975,0,0,0,6.6136-1.592,10.88848,10.88848,0,0,0,4.63975-4.61717,14.1115,14.1115,0,0,0,1.61388-6.74776,14.89923,14.89923,0,0,0-1.97252-7.64369,10.63589,10.63589,0,0,0-5.42477-4.73008Q501.04268,361.381,494.184,361.42618Zm0-3.49675q6.36586,0,9.3924-1.43522a10.67528,10.67528,0,0,0,4.63975-4.03471,14.49048,14.49048,0,0,0,.02258-13.2478,10.10729,10.10729,0,0,0-4.54942-3.92313q-2.96078-1.3449-9.50531-1.29974Z" transform="translate(-175.08392 -0.13474)"/></svg>